<svg xmlns="http://www.w3.org/2000/svg" viewBox="0 0 100 100" width="100" height="100">
  <defs>
    <linearGradient id="canvasGradient" x1="0%" y1="0%" x2="100%" y2="100%">
      <stop offset="0%" style="stop-color:#F39C12;stop-opacity:1" />
      <stop offset="100%" style="stop-color:#E67E22;stop-opacity:1" />
    </linearGradient>
  </defs>
  <!-- Canvas frame -->
  <rect x="10" y="15" width="70" height="70" rx="3" fill="white" stroke="#34495E" stroke-width="3"/>
  
  <!-- Drawing strokes -->
  <path d="M 20 30 Q 30 25 40 35 T 60 40" stroke="#3498DB" stroke-width="3" fill="none" stroke-linecap="round"/>
  <path d="M 25 50 Q 35 55 45 50 Q 55 45 65 52" stroke="#E74C3C" stroke-width="2.5" fill="none" stroke-linecap="round"/>
  <circle cx="30" cy="65" r="5" fill="#9B59B6" opacity="0.7"/>
  <path d="M 50 65 L 55 70 L 60 60" stroke="#27AE60" stroke-width="3" fill="none" stroke-linecap="round"/>
  
  <!-- Brush/pencil -->
  <rect x="75" y="55" width="6" height="30" rx="1" fill="#D35400" transform="rotate(-45 78 70)"/>
  <path d="M 75 50 L 78 47 L 81 50 Z" fill="#2C3E50" transform="rotate(-45 78 49)"/>
  
  <!-- Color palette dots -->
  <circle cx="25" cy="90" r="3" fill="#E74C3C"/>
  <circle cx="35" cy="90" r="3" fill="#3498DB"/>
  <circle cx="45" cy="90" r="3" fill="#27AE60"/>
  <circle cx="55" cy="90" r="3" fill="#F39C12"/>
</svg>
