<svg xmlns="http://www.w3.org/2000/svg" viewBox="0 0 100 100" width="100" height="100">
  <defs>
    <linearGradient id="builderGradient" x1="0%" y1="0%" x2="100%" y2="100%">
      <stop offset="0%" style="stop-color:#16A085;stop-opacity:1" />
      <stop offset="100%" style="stop-color:#138D75;stop-opacity:1" />
    </linearGradient>
  </defs>
  <!-- Word blocks scattered -->
  <rect x="15" y="15" width="20" height="12" rx="2" fill="#ECF0F1" stroke="#95A5A6" stroke-width="1.5"/>
  <text x="25" y="24" font-family="Arial, sans-serif" font-size="8" font-weight="bold" fill="#2C3E50" text-anchor="middle">I</text>
  
  <rect x="65" y="20" width="25" height="12" rx="2" fill="#ECF0F1" stroke="#95A5A6" stroke-width="1.5"/>
  <text x="77.5" y="29" font-family="Arial, sans-serif" font-size="7" font-weight="bold" fill="#2C3E50" text-anchor="middle">like</text>
  
  <rect x="40" y="25" width="30" height="12" rx="2" fill="#ECF0F1" stroke="#95A5A6" stroke-width="1.5"/>
  <text x="55" y="34" font-family="Arial, sans-serif" font-size="7" font-weight="bold" fill="#2C3E50" text-anchor="middle">English</text>
  
  <!-- Drop zone -->
  <rect x="10" y="55" width="80" height="35" rx="5" fill="url(#builderGradient)" stroke="#0E6655" stroke-width="2" stroke-dasharray="5,3"/>
  
  <!-- Completed sentence -->
  <rect x="15" y="62" width="15" height="10" rx="2" fill="white" opacity="0.9"/>
  <text x="22.5" y="69.5" font-family="Arial, sans-serif" font-size="6" font-weight="bold" fill="#138D75" text-anchor="middle">I</text>
  
  <rect x="32" y="62" width="20" height="10" rx="2" fill="white" opacity="0.9"/>
  <text x="42" y="69.5" font-family="Arial, sans-serif" font-size="6" font-weight="bold" fill="#138D75" text-anchor="middle">like</text>
  
  <rect x="54" y="62" width="28" height="10" rx="2" fill="white" opacity="0.9"/>
  <text x="68" y="69.5" font-family="Arial, sans-serif" font-size="6" font-weight="bold" fill="#138D75" text-anchor="middle">English</text>
  
  <!-- Cursor/hand icon -->
  <path d="M 20 45 L 20 35 L 18 35 L 21 30 L 24 35 L 22 35 L 22 45 Z" fill="#E67E22"/>
</svg>
